<?xml version="1.0" encoding="UTF-8" standalone="no"?>
<!DOCTYPE svg PUBLIC "-//W3C//DTD SVG 1.1//EN" "http://www.w3.org/Graphics/SVG/1.1/DTD/svg11.dtd">
<svg xmlns="http://www.w3.org/2000/svg" xmlns:xl="http://www.w3.org/1999/xlink" version="1.1" viewBox="264 169 365 258" width="365pt" height="258pt" xmlns:dc="http://purl.org/dc/elements/1.1/"><metadata> Produced by OmniGraffle 6.6 <dc:date>2016-07-21 19:28:31 +0000</dc:date></metadata><defs/><g stroke="none" stroke-opacity="1" stroke-dasharray="none" fill="none" fill-opacity="1"><title>critical path</title><g><title>Layer 1</title><line x1="385" y1="200.44486" x2="584.5" y2="243.80514" stroke="black" stroke-linecap="round" stroke-linejoin="round" stroke-width="1"/><line x1="359.14413" y1="213.70983" x2="350.35587" y2="230.54017" stroke="black" stroke-linecap="round" stroke-linejoin="round" stroke-width="1"/><line x1="376.53404" y1="213.73442" x2="384.96596" y2="230.51558" stroke="black" stroke-linecap="round" stroke-linejoin="round" stroke-width="1"/><line x1="341.5" y1="264.5" x2="341.5" y2="281.25" stroke="black" stroke-linecap="round" stroke-linejoin="round" stroke-width="1"/><line x1="393.5" y1="264.5" x2="393.5" y2="281.25" stroke="black" stroke-linecap="round" stroke-linejoin="round" stroke-width="1"/><line x1="408.0363" y1="261.68686" x2="430.9637" y2="284.06314" stroke="black" stroke-linecap="round" stroke-linejoin="round" stroke-width="1"/><line x1="327.56766" y1="262.26828" x2="305.43234" y2="285.73172" stroke="black" stroke-linecap="round" stroke-linejoin="round" stroke-width="1"/><line x1="306.07891" y1="314.64154" x2="326.9211" y2="334.85846" stroke="black" stroke-linecap="round" stroke-linejoin="round" stroke-width="1"/><line x1="341.5" y1="315.25" x2="341.5" y2="332" stroke="black" stroke-linecap="round" stroke-linejoin="round" stroke-width="1"/><line x1="389.22906" y1="315.25" x2="372.27094" y2="382.75" stroke="black" stroke-linecap="round" stroke-linejoin="round" stroke-width="1"/><line x1="350.35587" y1="365.95983" x2="359.14413" y2="382.79017" stroke="black" stroke-linecap="round" stroke-linejoin="round" stroke-width="1"/><line x1="433.30877" y1="314.21658" x2="380.19123" y2="383.78342" stroke="black" stroke-linecap="round" stroke-linejoin="round" stroke-width="1"/><line x1="384.5447" y1="207.5841" x2="428.9553" y2="236.6659" stroke="black" stroke-linecap="round" stroke-linejoin="round" stroke-width="1"/><line x1="445.5" y1="264.5" x2="445.5" y2="281.25" stroke="black" stroke-linecap="round" stroke-linejoin="round" stroke-width="1"/><line x1="460.0363" y1="261.68686" x2="482.9637" y2="284.06314" stroke="black" stroke-linecap="round" stroke-linejoin="round" stroke-width="1"/><line x1="385" y1="201.50344" x2="532.5" y2="242.74656" stroke="black" stroke-linecap="round" stroke-linejoin="round" stroke-width="1"/><line x1="549.5" y1="264.5" x2="549.5" y2="281.25" stroke="black" stroke-linecap="round" stroke-linejoin="round" stroke-width="1"/><line x1="601.5" y1="264.5" x2="601.5" y2="281.25" stroke="black" stroke-linecap="round" stroke-linejoin="round" stroke-width="1"/><line x1="481.65692" y1="310.66755" x2="383.84308" y2="387.33245" stroke="black" stroke-linecap="round" stroke-linejoin="round" stroke-width="1"/><line x1="532.615" y1="307.69258" x2="384.885" y2="390.30742" stroke="black" stroke-linecap="round" stroke-linejoin="round" stroke-width="1"/><line x1="584.5" y1="305.63972" x2="385" y2="392.36028" stroke="black" stroke-linecap="round" stroke-linejoin="round" stroke-width="1"/><path d="M 360 180.75 L 376 180.75 C 380.41828 180.75 384 184.33172 384 188.75 L 384 204.75 C 384 209.16828 380.41828 212.75 376 212.75 L 360 212.75 C 355.58172 212.75 352 209.16828 352 204.75 L 352 188.75 C 352 184.33172 355.58172 180.75 360 180.75 Z" fill="#d4d4d4"/><path d="M 360 180.75 L 376 180.75 C 380.41828 180.75 384 184.33172 384 188.75 L 384 204.75 C 384 209.16828 380.41828 212.75 376 212.75 L 360 212.75 C 355.58172 212.75 352 209.16828 352 204.75 L 352 188.75 C 352 184.33172 355.58172 180.75 360 180.75 Z" stroke="black" stroke-linecap="round" stroke-linejoin="round" stroke-width="2"/><path d="M 333.5 231.5 L 349.5 231.5 C 353.91828 231.5 357.5 235.08172 357.5 239.5 L 357.5 255.5 C 357.5 259.91828 353.91828 263.5 349.5 263.5 L 333.5 263.5 C 329.08172 263.5 325.5 259.91828 325.5 255.5 L 325.5 239.5 C 325.5 235.08172 329.08172 231.5 333.5 231.5 Z" fill="#d4d4d4"/><path d="M 333.5 231.5 L 349.5 231.5 C 353.91828 231.5 357.5 235.08172 357.5 239.5 L 357.5 255.5 C 357.5 259.91828 353.91828 263.5 349.5 263.5 L 333.5 263.5 C 329.08172 263.5 325.5 259.91828 325.5 255.5 L 325.5 239.5 C 325.5 235.08172 329.08172 231.5 333.5 231.5 Z" stroke="black" stroke-linecap="round" stroke-linejoin="round" stroke-width="2"/><path d="M 385.5 231.5 L 401.5 231.5 C 405.91828 231.5 409.5 235.08172 409.5 239.5 L 409.5 255.5 C 409.5 259.91828 405.91828 263.5 401.5 263.5 L 385.5 263.5 C 381.08172 263.5 377.5 259.91828 377.5 255.5 L 377.5 239.5 C 377.5 235.08172 381.08172 231.5 385.5 231.5 Z" fill="white"/><path d="M 385.5 231.5 L 401.5 231.5 C 405.91828 231.5 409.5 235.08172 409.5 239.5 L 409.5 255.5 C 409.5 259.91828 405.91828 263.5 401.5 263.5 L 385.5 263.5 C 381.08172 263.5 377.5 259.91828 377.5 255.5 L 377.5 239.5 C 377.5 235.08172 381.08172 231.5 385.5 231.5 Z" stroke="black" stroke-linecap="round" stroke-linejoin="round" stroke-width="2"/><path d="M 385.5 282.25 L 401.5 282.25 C 405.91828 282.25 409.5 285.83172 409.5 290.25 L 409.5 306.25 C 409.5 310.66828 405.91828 314.25 401.5 314.25 L 385.5 314.25 C 381.08172 314.25 377.5 310.66828 377.5 306.25 L 377.5 290.25 C 377.5 285.83172 381.08172 282.25 385.5 282.25 Z" fill="white"/><path d="M 385.5 282.25 L 401.5 282.25 C 405.91828 282.25 409.5 285.83172 409.5 290.25 L 409.5 306.25 C 409.5 310.66828 405.91828 314.25 401.5 314.25 L 385.5 314.25 C 381.08172 314.25 377.5 310.66828 377.5 306.25 L 377.5 290.25 C 377.5 285.83172 381.08172 282.25 385.5 282.25 Z" stroke="black" stroke-linecap="round" stroke-linejoin="round" stroke-width="2"/><path d="M 283.5 284.5 L 299.5 284.5 C 303.91828 284.5 307.5 288.08172 307.5 292.5 L 307.5 308.5 C 307.5 312.91828 303.91828 316.5 299.5 316.5 L 283.5 316.5 C 279.08172 316.5 275.5 312.91828 275.5 308.5 L 275.5 292.5 C 275.5 288.08172 279.08172 284.5 283.5 284.5 Z" fill="white"/><path d="M 283.5 284.5 L 299.5 284.5 C 303.91828 284.5 307.5 288.08172 307.5 292.5 L 307.5 308.5 C 307.5 312.91828 303.91828 316.5 299.5 316.5 L 283.5 316.5 C 279.08172 316.5 275.5 312.91828 275.5 308.5 L 275.5 292.5 C 275.5 288.08172 279.08172 284.5 283.5 284.5 Z" stroke="black" stroke-linecap="round" stroke-linejoin="round" stroke-width="2"/><path d="M 333.5 333 L 349.5 333 C 353.91828 333 357.5 336.58172 357.5 341 L 357.5 357 C 357.5 361.41828 353.91828 365 349.5 365 L 333.5 365 C 329.08172 365 325.5 361.41828 325.5 357 L 325.5 341 C 325.5 336.58172 329.08172 333 333.5 333 Z" fill="#d4d4d4"/><path d="M 333.5 333 L 349.5 333 C 353.91828 333 357.5 336.58172 357.5 341 L 357.5 357 C 357.5 361.41828 353.91828 365 349.5 365 L 333.5 365 C 329.08172 365 325.5 361.41828 325.5 357 L 325.5 341 C 325.5 336.58172 329.08172 333 333.5 333 Z" stroke="black" stroke-linecap="round" stroke-linejoin="round" stroke-width="2"/><path d="M 333.5 282.25 L 349.5 282.25 C 353.91828 282.25 357.5 285.83172 357.5 290.25 L 357.5 306.25 C 357.5 310.66828 353.91828 314.25 349.5 314.25 L 333.5 314.25 C 329.08172 314.25 325.5 310.66828 325.5 306.25 L 325.5 290.25 C 325.5 285.83172 329.08172 282.25 333.5 282.25 Z" fill="#d4d4d4"/><path d="M 333.5 282.25 L 349.5 282.25 C 353.91828 282.25 357.5 285.83172 357.5 290.25 L 357.5 306.25 C 357.5 310.66828 353.91828 314.25 349.5 314.25 L 333.5 314.25 C 329.08172 314.25 325.5 310.66828 325.5 306.25 L 325.5 290.25 C 325.5 285.83172 329.08172 282.25 333.5 282.25 Z" stroke="black" stroke-linecap="round" stroke-linejoin="round" stroke-width="2"/><path d="M 437.5 282.25 L 453.5 282.25 C 457.91828 282.25 461.5 285.83172 461.5 290.25 L 461.5 306.25 C 461.5 310.66828 457.91828 314.25 453.5 314.25 L 437.5 314.25 C 433.08172 314.25 429.5 310.66828 429.5 306.25 L 429.5 290.25 C 429.5 285.83172 433.08172 282.25 437.5 282.25 Z" fill="white"/><path d="M 437.5 282.25 L 453.5 282.25 C 457.91828 282.25 461.5 285.83172 461.5 290.25 L 461.5 306.25 C 461.5 310.66828 457.91828 314.25 453.5 314.25 L 437.5 314.25 C 433.08172 314.25 429.5 310.66828 429.5 306.25 L 429.5 290.25 C 429.5 285.83172 433.08172 282.25 437.5 282.25 Z" stroke="black" stroke-linecap="round" stroke-linejoin="round" stroke-width="2"/><path d="M 360 383.75 L 376 383.75 C 380.41828 383.75 384 387.33172 384 391.75 L 384 407.75 C 384 412.16828 380.41828 415.75 376 415.75 L 360 415.75 C 355.58172 415.75 352 412.16828 352 407.75 L 352 391.75 C 352 387.33172 355.58172 383.75 360 383.75 Z" fill="#d4d4d4"/><path d="M 360 383.75 L 376 383.75 C 380.41828 383.75 384 387.33172 384 391.75 L 384 407.75 C 384 412.16828 380.41828 415.75 376 415.75 L 360 415.75 C 355.58172 415.75 352 412.16828 352 407.75 L 352 391.75 C 352 387.33172 355.58172 383.75 360 383.75 Z" stroke="black" stroke-linecap="round" stroke-linejoin="round" stroke-width="2"/><path d="M 489.5 282.25 L 505.5 282.25 C 509.91828 282.25 513.5 285.83172 513.5 290.25 L 513.5 306.25 C 513.5 310.66828 509.91828 314.25 505.5 314.25 L 489.5 314.25 C 485.08172 314.25 481.5 310.66828 481.5 306.25 L 481.5 290.25 C 481.5 285.83172 485.08172 282.25 489.5 282.25 Z" fill="white"/><path d="M 489.5 282.25 L 505.5 282.25 C 509.91828 282.25 513.5 285.83172 513.5 290.25 L 513.5 306.25 C 513.5 310.66828 509.91828 314.25 505.5 314.25 L 489.5 314.25 C 485.08172 314.25 481.5 310.66828 481.5 306.25 L 481.5 290.25 C 481.5 285.83172 485.08172 282.25 489.5 282.25 Z" stroke="black" stroke-linecap="round" stroke-linejoin="round" stroke-width="2"/><path d="M 541.5 282.25 L 557.5 282.25 C 561.91828 282.25 565.5 285.83172 565.5 290.25 L 565.5 306.25 C 565.5 310.66828 561.91828 314.25 557.5 314.25 L 541.5 314.25 C 537.08172 314.25 533.5 310.66828 533.5 306.25 L 533.5 290.25 C 533.5 285.83172 537.08172 282.25 541.5 282.25 Z" fill="white"/><path d="M 541.5 282.25 L 557.5 282.25 C 561.91828 282.25 565.5 285.83172 565.5 290.25 L 565.5 306.25 C 565.5 310.66828 561.91828 314.25 557.5 314.25 L 541.5 314.25 C 537.08172 314.25 533.5 310.66828 533.5 306.25 L 533.5 290.25 C 533.5 285.83172 537.08172 282.25 541.5 282.25 Z" stroke="black" stroke-linecap="round" stroke-linejoin="round" stroke-width="2"/><path d="M 593.5 282.25 L 609.5 282.25 C 613.91828 282.25 617.5 285.83172 617.5 290.25 L 617.5 306.25 C 617.5 310.66828 613.91828 314.25 609.5 314.25 L 593.5 314.25 C 589.08172 314.25 585.5 310.66828 585.5 306.25 L 585.5 290.25 C 585.5 285.83172 589.08172 282.25 593.5 282.25 Z" fill="white"/><path d="M 593.5 282.25 L 609.5 282.25 C 613.91828 282.25 617.5 285.83172 617.5 290.25 L 617.5 306.25 C 617.5 310.66828 613.91828 314.25 609.5 314.25 L 593.5 314.25 C 589.08172 314.25 585.5 310.66828 585.5 306.25 L 585.5 290.25 C 585.5 285.83172 589.08172 282.25 593.5 282.25 Z" stroke="black" stroke-linecap="round" stroke-linejoin="round" stroke-width="2"/><path d="M 437.5 231.5 L 453.5 231.5 C 457.91828 231.5 461.5 235.08172 461.5 239.5 L 461.5 255.5 C 461.5 259.91828 457.91828 263.5 453.5 263.5 L 437.5 263.5 C 433.08172 263.5 429.5 259.91828 429.5 255.5 L 429.5 239.5 C 429.5 235.08172 433.08172 231.5 437.5 231.5 Z" fill="white"/><path d="M 437.5 231.5 L 453.5 231.5 C 457.91828 231.5 461.5 235.08172 461.5 239.5 L 461.5 255.5 C 461.5 259.91828 457.91828 263.5 453.5 263.5 L 437.5 263.5 C 433.08172 263.5 429.5 259.91828 429.5 255.5 L 429.5 239.5 C 429.5 235.08172 433.08172 231.5 437.5 231.5 Z" stroke="black" stroke-linecap="round" stroke-linejoin="round" stroke-width="2"/><path d="M 541.5 231.5 L 557.5 231.5 C 561.91828 231.5 565.5 235.08172 565.5 239.5 L 565.5 255.5 C 565.5 259.91828 561.91828 263.5 557.5 263.5 L 541.5 263.5 C 537.08172 263.5 533.5 259.91828 533.5 255.5 L 533.5 239.5 C 533.5 235.08172 537.08172 231.5 541.5 231.5 Z" fill="white"/><path d="M 541.5 231.5 L 557.5 231.5 C 561.91828 231.5 565.5 235.08172 565.5 239.5 L 565.5 255.5 C 565.5 259.91828 561.91828 263.5 557.5 263.5 L 541.5 263.5 C 537.08172 263.5 533.5 259.91828 533.5 255.5 L 533.5 239.5 C 533.5 235.08172 537.08172 231.5 541.5 231.5 Z" stroke="black" stroke-linecap="round" stroke-linejoin="round" stroke-width="2"/><path d="M 593.5 231.5 L 609.5 231.5 C 613.91828 231.5 617.5 235.08172 617.5 239.5 L 617.5 255.5 C 617.5 259.91828 613.91828 263.5 609.5 263.5 L 593.5 263.5 C 589.08172 263.5 585.5 259.91828 585.5 255.5 L 585.5 239.5 C 585.5 235.08172 589.08172 231.5 593.5 231.5 Z" fill="white"/><path d="M 593.5 231.5 L 609.5 231.5 C 613.91828 231.5 617.5 235.08172 617.5 239.5 L 617.5 255.5 C 617.5 259.91828 613.91828 263.5 609.5 263.5 L 593.5 263.5 C 589.08172 263.5 585.5 259.91828 585.5 255.5 L 585.5 239.5 C 585.5 235.08172 589.08172 231.5 593.5 231.5 Z" stroke="black" stroke-linecap="round" stroke-linejoin="round" stroke-width="2"/></g></g></svg>
